<?xml version="1.0" encoding="utf-8"?>
<!-- Generator: Adobe Illustrator 16.0.0, SVG Export Plug-In . SVG Version: 6.00 Build 0)  -->
<!DOCTYPE svg PUBLIC "-//W3C//DTD SVG 1.1//EN" "http://www.w3.org/Graphics/SVG/1.1/DTD/svg11.dtd">
<svg version="1.1" id="Capa_1" xmlns="http://www.w3.org/2000/svg" xmlns:xlink="http://www.w3.org/1999/xlink" x="0px" y="0px"
	 width="400.632px" height="407.598px" viewBox="3.485 0 400.632 407.598" enable-background="new 3.485 0 400.632 407.598"
	 xml:space="preserve">
<g>
  <rect x="20" y="20" width="350" height="350" fill="#fff" />
	<path fill="#000000" d="M365.835,0H41.766c-21.14,0-38.28,17.14-38.28,38.28v331.04c0,21.141,17.14,38.28,38.28,38.28h324.069
		c21.141,0,38.28-17.14,38.28-38.28V38.279C404.116,17.139,386.976,0,365.835,0z M362.276,328.509c0,20.05-16.33,36.39-36.4,36.39
		H81.716c-20.06,0-36.4-16.33-36.4-36.39V79.089c0-20.06,16.33-36.39,36.4-36.39h244.17c20.06,0,36.39,16.33,36.39,36.39V328.509z"
		/>
	<path fill="#000" d="M325.886,57.79H81.716c-11.75,0-21.3,9.55-21.3,21.29v249.43c0,11.74,9.55,21.29,21.3,21.29h244.17
		c11.739,0,21.3-9.55,21.3-21.29V79.089C347.176,67.349,337.625,57.79,325.886,57.79z M203.426,252.219H96.536V87.309h106.04v30.44
		h-65.09v36.74h56.06v30.54h-56.06v36.74h65.94V252.219z"/>
	<polygon fill="#FFFFFF" points="203.426,221.769 203.426,252.219 96.536,252.219 96.536,87.309 202.576,87.309 202.576,117.75
		137.486,117.75 137.486,154.489 193.546,154.489 193.546,185.029 137.486,185.029 137.486,221.769 	"/>
</g>
</svg>
